# xmcd
#
# Track frame offsets: 
#        150
#        17841
#        33782
#        49705
#        71539
#        87567
#        104900
#        120792
#        137231
#        150206
#        168221
#        182401
#        198348
#        220178
#        237333
#        254476
#        276839
#        296961
#        313138
#        328014
#
# Disc length: 4650 seconds
#
# Revision: 0
# Processed by: cddbd v1.5.2PL0 Copyright (c) Steve Scherf et al.
# Submitted via: ExactAudioCopyFreeDBPlugin 1.0
#
DISCID=22122814
DTITLE=Various Artist - Eurocharts Hits Vol.2
DYEAR=2000
DGENRE=Pop
TTITLE0=Enrique Iglesias - Be With You
TTITLE1=Britney Spears - Opps! I Did It Again
TTITLE2=John The Whistler - I'm In Love
TTITLE3=Toni Braxton - Spanish Guitar
TTITLE4=Gigi D'agostino - The Riddle
TTITLE5=Jennifer Lopez - Feeling So Good
TTITLE6=Sasha - Let Me Be The One
TTITLE7=Geri Halliwell - Bag It Up
TTITLE8=Kosmonova - Dance Avec Moi
TTITLE9=Ricky Martin feat. Meja - Private Emotion
TTITLE10=Captain G.Q. - Easy 2000
TTITLE11=Passion Fruit - Wonderland
TTITLE12=Sting - Desert Rose
TTITLE13=Madonna - Time Stood Still
TTITLE14=Enyosion - Satisfaction
TTITLE15=Melanie C - Never Be The Same Again
TTITLE16=All Saints - Pure Shores
TTITLE17=The Ant - Ant Song (Dam Da Dam)
TTITLE18=The Driver - Project Join Me
TTITLE19=A-Ha - Summer Moved On
EXTD=
EXTT0=
EXTT1=
EXTT2=
EXTT3=
EXTT4=
EXTT5=
EXTT6=
EXTT7=
EXTT8=
EXTT9=
EXTT10=
EXTT11=
EXTT12=
EXTT13=
EXTT14=
EXTT15=
EXTT16=
EXTT17=
EXTT18=
EXTT19=
PLAYORDER=
